# xmcd
#
# Track frame offsets: 
#        150
#        16702
#        35252
#        52890
#        68295
#        85180
#        102210
#        118335
#        132062
#        144630
#        161650
#        175860
#        192702
#        207872
#        221380
#        239697
#        255925
#        273785
#        290155
#
# Disc length: 4181 seconds
#
# Revision: 0
# Processed by: cddbd v1.5.2PL0 Copyright (c) Steve Scherf et al.
# Submitted via: ExactAudioCopyFreeDBPlugin 1.0
#
DISCID=0b105313
DTITLE=Various Artist - Dance Box 3 CD2
DYEAR=1996
DGENRE=
TTITLE0=Backstreet Boys - We've Got It Goin' On
TTITLE1=Captain Jack - Captain Jack
TTITLE2=E-Type - This Is The Way
TTITLE3=Leila K - Open Sesame
TTITLE4=U96 - Love Sees No Colour
TTITLE5=T-Spoon - Where R U Now
TTITLE6=The Bucketheads - Got Myself Together
TTITLE7=Crystal Waters - 100% Pure Love
TTITLE8=Neneh Cherry - Buddy X
TTITLE9=Shaggy and Grand Puba - Why You Treat Me So Bad
TTITLE10=Club 69 - Let Me Be Your Underwear
TTITLE11=Sin With Sebastian - Shut Up (And Sleep With Me)
TTITLE12=Clock - Axel F
TTITLE13=Yavahn - Everybody Be Somebody
TTITLE14=Lisa Moorish - I'm Your Man
TTITLE15=Sophia - Take It Or Leave It
TTITLE16=The Real McCoy - Run Away
TTITLE17=Culture Beat - Got To Get It
TTITLE18=Scooter - Hyper Hyper
EXTD=
EXTT0=
EXTT1=
EXTT2=
EXTT3=
EXTT4=
EXTT5=
EXTT6=
EXTT7=
EXTT8=
EXTT9=
EXTT10=
EXTT11=
EXTT12=
EXTT13=
EXTT14=
EXTT15=
EXTT16=
EXTT17=
EXTT18=
PLAYORDER=
